<svg xmlns="http://www.w3.org/2000/svg" width="512" height="512" viewBox="0 0 512 512"><rect width="512" height="512" rx="96" fill="#f59e0b"/><path d="M173.7,242.5 L173.7,447.5 L362.3,345.0 Z" fill="#2563eb" stroke="#ffffff" stroke-width="22" stroke-linejoin="round"/><g transform="translate(106.08,170.00) scale(0.13245,-0.13245)" fill="#ffffff"><path transform="translate(0.0,0)" d="M735 381Q735 205 632.0 102.5Q529 0 346 0H80V763H343Q531 763 633.0 662.5Q735 562 735 381ZM334 589H298V174H346Q429 174 473.0 228.0Q517 282 517 382Q517 483 470.5 536.0Q424 589 334 589Z"/><path transform="translate(835.4,0)" d="M471 281V0H255V281L-10 763H233L329 555Q337 537 343.5 519.0Q350 501 360 466H366Q374 495 381.0 515.0Q388 535 397 555L490 763H734Z"/><path transform="translate(1619.8,0)" d="M594 234Q594 114 513.0 52.0Q432 -10 275 -10Q212 -10 158.0 -1.0Q104 8 50 27V213Q99 185 158.0 170.0Q217 155 278 155Q326 155 350.0 170.0Q374 185 374 215Q374 236 354.5 253.5Q335 271 266 299Q200 327 168.5 345.5Q137 364 114 386Q82 417 66.0 456.5Q50 496 50 545Q50 653 129.0 713.0Q208 773 350 773Q408 773 464.0 761.5Q520 750 561 729V533Q522 566 464.0 585.5Q406 605 347 605Q305 605 285.0 593.5Q265 582 265 558Q265 535 286.5 515.5Q308 496 382 464Q445 437 475.5 419.5Q506 402 528 383Q561 353 577.5 316.0Q594 279 594 234Z"/></g></svg>